<svg viewBox="0 0 800 600" xmlns="http://www.w3.org/2000/svg">
  <!-- Background -->
  <rect x="50" y="50" width="700" height="500" rx="20" fill="#ffffff" stroke="#e5e7eb" stroke-width="2"/>
  
  <!-- Top Bar -->
  <rect x="50" y="50" width="700" height="60" rx="20" fill="#f3f4f6"/>
  <circle cx="100" cy="80" r="15" fill="#10b981"/>
  <circle cx="140" cy="80" r="15" fill="#fbbf24"/>
  <circle cx="180" cy="80" r="15" fill="#ef4444"/>
  
  <!-- Sidebar -->
  <rect x="50" y="50" width="200" height="500" rx="20" fill="#f8fafc"/>
  
  <!-- Sidebar Menu Items -->
  <rect x="70" y="140" width="160" height="40" rx="8" fill="#e2e8f0"/>
  <rect x="70" y="200" width="160" height="40" rx="8" fill="#f1f5f9"/>
  <rect x="70" y="260" width="160" height="40" rx="8" fill="#f1f5f9"/>
  <rect x="70" y="320" width="160" height="40" rx="8" fill="#f1f5f9"/>
  
  <!-- Main Content Area -->
  <!-- Graph -->
  <path d="M300 200 L500 300 L700 250" stroke="#10b981" stroke-width="3" fill="none"/>
  <path d="M300 200 L500 300 L700 250" stroke="#10b981" stroke-width="12" fill="none" opacity="0.1"/>
  
  <!-- Cards -->
  <rect x="300" y="100" width="200" height="80" rx="10" fill="#f0fdf4"/>
  <rect x="520" y="100" width="200" height="80" rx="10" fill="#f0fdf4"/>
  
  <!-- Data Table -->
  <rect x="300" y="350" width="420" height="160" rx="10" fill="#f8fafc"/>
  <line x1="300" y1="390" x2="720" y2="390" stroke="#e5e7eb" stroke-width="2"/>
  <line x1="300" y1="430" x2="720" y2="430" stroke="#e5e7eb" stroke-width="2"/>
  <line x1="300" y1="470" x2="720" y2="470" stroke="#e5e7eb" stroke-width="2"/>
</svg>